<?xml version="1.0" encoding="utf-8"?>
<!-- Generator: Adobe Illustrator 24.1.3, SVG Export Plug-In . SVG Version: 6.00 Build 0)  -->
<svg version="1.1" id="Layer_1" xmlns="http://www.w3.org/2000/svg" xmlns:xlink="http://www.w3.org/1999/xlink" x="0px" y="0px"
	 viewBox="0 0 928 928" style="enable-background:new 0 0 928 928;" xml:space="preserve">
<style type="text/css">
	.st0{opacity:0.87;fill:#FFFFFF;}
	.st1{fill:#FFFFFF;}
	.st2{opacity:0.87;}
	.st3{fill:none;stroke:#262626;stroke-width:40;stroke-miterlimit:10;}
	.st4{fill:#262626;}
</style>
<g>
	<g>
		<path class="st0" d="M164.25,364.28c0,86.76,55.28,160.61,132.52,188.26c21.04,7.54,43.73,11.64,67.37,11.64h200.64V164.38H364.14
			c-23.65,0-46.33,4.1-67.37,11.64C219.52,203.66,164.25,277.52,164.25,364.28z"/>
		<path class="st0" d="M764.47,518.66c0,77.95-57.51,142.46-132.42,153.39c-0.15,0.01-0.28,0.04-0.43,0.06v91.29H365.09V363.6
			h244.33c7.54,0,14.94,0.55,22.2,1.6c0.15,0.01,0.28,0.04,0.43,0.06C706.96,376.2,764.47,440.72,764.47,518.66z"/>
	</g>
	<g>
		<path class="st1" d="M57.85,249.47l-1.11,2.61c4.41,3.2,8.77,6.53,13.19,9.73c6.11,4.47,10.77,8,16.91,12.4l0.67-1.56
			c0.67-1.57,5.43,0.47,4.76,2.03l-3.68,8.61c-0.61,1.44-5.37-0.6-4.76-2.04l0.45-1.04l-1.49,0.06l0.06,0.03
			c-3.95,0.39-7.92,0.85-11.9,1.31l-26.29,2.87c0.51,0.6,1.06,1.3,1.58,1.91l14.79,18.43c3.09,3.79,5.15,6.52,8.28,10.4l0.47-1.11
			c0.61-1.44,5.37,0.6,4.76,2.03l-3.68,8.61c-0.64,1.5-5.4-0.54-4.76-2.03l0.64-1.5l-15.98-2.13c-7.3-0.96-14.19-1.98-21.43-2.91
			l-1.34,3.13c-0.64,1.5-5.46-0.56-4.82-2.06l3.68-8.61c0.64-1.5,5.46,0.57,4.82,2.06l-0.72,1.7c11.95,1.64,22.39,3.02,34.52,4.58
			c-0.24-0.34-0.54-0.54-0.81-0.81l-12.78-16.11l-12.91-16.16c-0.8-1.19-0.05-2.95,1.34-3.13c1.36-0.11,2.71-0.38,4.16-0.53
			l1.61-0.16c6.44-0.64,12.75-1.33,19.16-2.06l17.58-1.97c-5.15-3.82-10.55-7.6-15.77-11.45l-11.92-8.72l-0.92,2.15
			c-0.64,1.5-5.47-0.57-4.82-2.06l3.65-8.54C53.69,245.84,58.51,247.9,57.85,249.47z"/>
		<path class="st1" d="M120.6,170.1l-5.42-4.11l-33.85,44.63l11.86,9l26.31-34.69c0.99-1.3,5.11,1.83,4.12,3.13l-26.31,34.69
			l13.11,9.94l33.81-44.58L138.8,184c-1.3-0.98,1.02-4.03,2.31-3.05l7.46,5.66c0.79,0.6,1.06,1.07,1.18,1.61
			c0.04,0.65,0.01,1.16-0.25,1.5l-38.99,51.41c-0.98,1.3-5.11-1.83-4.12-3.13l1.67-2.21l-29.1-22.07l-1.67,2.2
			c-0.99,1.3-5.11-1.83-4.12-3.13l39.03-51.47c0.26-0.34,0.74-0.51,1.48-0.66c0.45-0.01,1.09,0.2,1.77,0.72l7.46,5.66
			C124.21,168.04,121.9,171.09,120.6,170.1z"/>
		<path class="st1" d="M213.82,129.96c-0.8,1.14-1.68,1.97-7.83,7.11l-6.96,5.83c-6.2,5.19-15.1,12.56-27.99,23.36
			c-1.19,1-4.52-2.97-3.32-3.97l2.12-1.78l-10.61-12.66l-2.12,1.77c-1.2,1-4.52-2.97-3.32-3.97l2.12-1.78l-9.16-10.93l-2.12,1.78
			c-1.2,1-4.48-2.91-3.28-3.92l32.72-27.42c0.49-0.41,0.93-0.87,1.42-1.28c1.15-1.06,2.78-2.42,3.95-3.12l-0.05,0.05
			c4.52-2.77,10.43-3.01,14.8,1.1c2.73,2.71,4.11,5.9,4.07,9.17c4.55-1.97,9.5-1.02,13.44,2.9
			C216.81,117.18,217.77,124.51,213.82,129.96z M149.69,130.49l9.15,10.93l32.02-26.83c0.5-0.51,1.05-1.06,1.39-1.54
			c1.29-2.1,2.11-4.54,1.54-6.56c-0.37-0.99-0.79-1.93-1.42-2.69c-1.05-1.25-2.73-2.15-4.69-2.18c-2.25-0.15-4.67,1.05-6.62,2.59
			L149.69,130.49z M209.71,115.45c-1.09-1.3-2.78-2.21-4.96-2.5c-2.4-0.21-4.96,0.92-7.03,2.65l-35.55,29.78l10.61,12.66
			l36.86-30.88c0.16-0.14,0.33-0.37,0.46-0.66l0.18-0.34C212.39,122.73,212.03,118.22,209.71,115.45z"/>
		<path class="st1" d="M355.03,58.28c-2.17,3.29-5.14,4.46-8.43,5.59l-48.69,16.73c-1.48,0.51-3.13-4.32-1.66-4.83l2.62-0.9
			l-11.66-33.93l-2.62,0.9c-1.48,0.51-3.18-4.46-1.71-4.96l48.02-16.49c2.88-0.99,5.52-1.82,8.98-1.36c3.37,0.42,6.37,2.39,8.3,5.62
			c0.52,0.87,0.82,1.74,1.19,2.82c0.21,0.6,0.41,1.21,0.62,1.81l6.11,17.77C357.39,50.94,357.15,55.07,355.03,58.28z M351.78,46.42
			l-6.04-17.57c-1.4-4.09-5.5-5.76-10.04-4.57c-1.03,0.28-2.39,0.67-3.4,1.02c-0.8,0.27-1.59,0.62-2.46,0.92
			c-0.94,0.32-1.92,0.74-2.86,1.06l-36.22,12.44l11.66,33.94l43.39-14.9c3.96-1.36,7.1-3.79,7.17-7.71
			C352.98,49.46,352.38,47.94,351.78,46.42z"/>
		<path class="st1" d="M444.49,12.12l-0.69-6.77l-55.72,5.73l1.52,14.81l43.31-4.45c1.62-0.17,2.15,4.98,0.53,5.15l-43.31,4.45
			l1.68,16.36l55.65-5.72l-0.7-6.77c-0.17-1.62,3.64-2.01,3.81-0.39l0.96,9.31c0.1,0.99-0.06,1.5-0.37,1.96
			c-0.45,0.47-0.84,0.8-1.27,0.84l-64.18,6.59c-1.62,0.17-2.15-4.98-0.53-5.15l2.75-0.28l-3.73-36.32l-2.75,0.28
			c-1.62,0.17-2.15-4.98-0.53-5.15L445.17,0c0.42-0.04,0.88,0.2,1.49,0.63c0.32,0.32,0.6,0.94,0.68,1.78l0.96,9.31
			C448.47,13.35,444.66,13.74,444.49,12.12z"/>
		<path class="st1" d="M490.93,7.96c-0.84,0.97-1.33,2.05-1.46,3.1c-0.09,0.7,0.02,1.5,0.21,2.32c0.89,3.76,6.79,5.14,11.45,6.16
			c1.04,0.27,2.08,0.48,2.91,0.72l14.08,3.99c4.07,1.15,8,2.3,12.08,3.38c1.58,0.49,3.09,0.96,4.62,1.3l5.24,1.52l-0.07-0.01
			c0.28,0.04,0.55,0.21,0.83,0.25c1.8,0.44,3.38,0.93,5.28,2.31c3.01,2.24,4.29,6.26,3.8,10.13c-0.11,0.91-0.48,2.08-0.64,2.78
			c-2.43,5.7-7.93,7.36-13.03,7c-2.69-0.2-5.23-0.45-7.91-0.78c-2.11-0.27-4.21-0.6-6.33-0.87c-2.18-0.27-4.35-0.62-6.46-0.89
			c-1.55-0.2-3.17-0.4-4.72-0.52c-1.69-0.21-3.53-0.37-5.22-0.59c-2.11-0.27-4.07-0.58-6.02-1.04c-4.52-1-10.34-3.02-13.92-6.97
			l-0.09,0.7c-0.2,1.62-4,1.14-3.8-0.48l1.18-9.36c0.2-1.62,4-1.14,3.8,0.48l-0.06,0.49c-0.13,1.63,0.99,3.48,2.32,4.87
			c3.73,3.33,9.73,5.02,14.8,5.65l27.02,3.41c1.41,0.18,2.81,0.42,4.29,0.54c3.03,0.38,6.65,0.55,8.8-1.18
			c1.21-1.13,2.01-2.39,2.19-3.73c0.05-0.42-0.01-1.08-0.08-1.66c-0.49-4.06-6.37-5.59-10.94-6.74c-0.84-0.11-1.95-0.46-2.78-0.64
			l-26.23-7.38l-10.21-2.93c-0.28-0.04-0.55-0.21-0.83-0.25c-1.52-0.41-2.98-0.73-4.7-1.81c-4.04-2.51-5.6-7.78-4.29-12.48
			c1.91-6.05,6.95-8.06,12.29-7.89c2.7,0.13,5.38,0.46,8.12,0.81c2.32,0.29,4.57,0.58,6.89,0.87c2.17,0.35,4.35,0.62,6.46,0.89
			c1.62,0.2,3.24,0.41,4.79,0.53c1.76,0.22,3.52,0.44,5.28,0.67c2.11,0.27,4.15,0.52,6.09,0.98c4.51,1.07,10.4,3.17,13.91,7.04
			l0.15-1.2c0.21-1.62,4.01-1.14,3.8,0.48l-1.18,9.36c-0.13,1.05-0.49,1.65-0.96,1.95c-1.22,0.63-3.17-0.4-2.92-2.37
			c0.16-1.84-0.64-3.44-2.24-4.93c-3.7-3.54-9.65-5.08-14.86-5.73l-27.3-3.44c-1.55-0.2-3.17-0.4-4.72-0.6
			C496.48,5.87,492.86,5.7,490.93,7.96z"/>
		<path class="st1" d="M597.14,68.93l-20.34-6.26c-1.62-0.5-0.1-5.45,1.52-4.95l8.34,2.57l10.74-34.91l-8.34-2.57
			c-1.63-0.5-0.1-5.45,1.52-4.95l20.34,6.26c1.56,0.48,0.03,5.43-1.52,4.95l-8.34-2.57l-10.74,34.91l8.34,2.57
			C600.22,64.46,598.7,69.4,597.14,68.93z"/>
		<path class="st1" d="M642.96,50.4c-2.81,2.23-4.56,5.32-6.07,8.29c-1.65,3.22-2.85,6.51-2.41,10.32
			c0.57,6.51,5.23,10.8,11.17,13.84l19.07,9.76c1.39,0.71,2.91,1.48,4.42,1.94c4.43,1.63,12.02,4.08,15.6,1.28
			c1.21-0.97,1.92-2.52,2.57-3.94c0.2-0.38,0.39-0.91,0.58-1.29l2-3.92l-26.65-13.63c-1.52-0.78,0.87-5.45,2.39-4.67l28.42,14.54
			c0.88,0.45,1.19,1.88,0.51,3.21l-4.3,8.4c-1.45,2.84-2.94,5.27-5.93,6.29c-6.08,2.23-13.9,0.54-19.15-2.14
			c-4.17-2.13-8.37-4.36-12.73-6.59l-12.63-6.46c-8.53-4.36-11.75-15.65-8.18-24.98c0.55-1.39,1.17-2.91,1.94-4.42
			c2.94-5.75,7.14-10.69,13.35-12.7c7.06-2.28,12.95-0.23,18.88,2.81l17.69,9.04c5.24,2.68,12.84,7.29,15.39,13.69l0.49-0.95
			c0.71-1.39,4.18,0.39,3.47,1.78l-4.26,8.34c-0.49,0.95-1.12,1.42-1.63,1.47c-1.33,0.27-2.78-1.42-1.94-3.22
			c2.46-5.12-4.6-10.8-9.1-13.82c-2.02-1.35-4.42-2.58-11.37-6.13c-3.22-1.65-7.42-3.72-13.04-6.59
			C655.33,46.77,648.39,46.48,642.96,50.4z"/>
		<path class="st1" d="M758.32,167.07l-7.14-6.06c-0.81-0.69,0.38-2.75,1.71-3.66l-0.69-2.91l-8-33.31l-5.5-23l-22.4,26.38
			l2.05,1.75c1.3,1.1-2.1,5.1-3.39,4l-7.14-6.06c-1.19-1.01,2.21-5.01,3.4-4l2.11,1.79l23.55-27.73l-2.11-1.79
			c-1.19-1.01,2.16-4.96,3.35-3.95l7.13,6.06c0.87,0.74-0.42,2.8-1.71,3.66l0.15,0.59l0.54,2.32c3.63,14.9,7.32,30.5,10.91,45.45
			l2.6,10.86l22.45-26.44l-2.05-1.74c-1.24-1.06,2.11-5,3.35-3.95l7.14,6.06c1.19,1.01-2.16,4.95-3.35,3.94l-2.11-1.79l-23.55,27.74
			l2.11,1.79C762.9,164.08,759.51,168.08,758.32,167.07z"/>
		<path class="st1" d="M842.32,215.77l5.46-4.07l-33.45-44.96l-11.95,8.89l26,34.94c0.97,1.31-3.18,4.4-4.15,3.09l-26-34.94
			l-13.2,9.82l33.41,44.9l5.46-4.06c1.31-0.98,3.6,2.1,2.29,3.07l-7.51,5.59c-0.8,0.59-1.32,0.72-1.88,0.69
			c-0.64-0.15-1.12-0.32-1.37-0.66l-38.53-51.78c-0.97-1.31,3.18-4.4,4.15-3.09l1.65,2.22l29.3-21.8l-1.65-2.22
			c-0.98-1.31,3.18-4.4,4.16-3.09l38.57,51.84c0.26,0.34,0.28,0.85,0.22,1.61c-0.11,0.44-0.5,0.99-1.18,1.5l-7.51,5.59
			C843.29,219.81,841.01,216.74,842.32,215.77z"/>
		<path class="st1" d="M857.92,324.25l-3.8-8.63c-0.68-1.56,3.79-3.53,4.68-2.21c1.72-3.31,3.57-6.68,5.38-9.96l2.52-4.83
			l-15.04-34.21l-12.07,5.31l1.09,2.46c0.66,1.49-4.08,3.58-4.74,2.08l-3.77-8.57c-0.68-1.56,4.05-3.64,4.74-2.08l1.08,2.47
			l33.62-14.79l-1.09-2.47c-0.69-1.56,4.12-3.67,4.8-2.11l10.05,22.85c1.31,2.99,2.63,5.97,4,8.93c1.41,3.02,2.75,6.07,4.09,9.12
			c0.97,2.21,1.94,4.41,2.85,6.65c2.45,6.28,0.29,14.05-6.12,17.8c-6.99,4.01-15.78,1.82-19.61-4.78c-0.62-1.05-1.19-2.35-1.7-3.51
			l-3.46,6.4l-4.41,8.29l1.63,3.7C863.32,323.66,858.58,325.75,857.92,324.25z M866.08,284.34c0.94,2.14,1.88,4.28,2.73,6.39
			c0.88,2.17,1.78,4.41,2.73,6.55c1.08,2.47,2.23,4.91,3.48,7.22c2.55,4.92,8.13,6.49,12.28,4.67c1.95-0.86,3.65-2.61,4.61-5.2
			c1.38-3.55-0.16-7.06-1.73-10.63c-5.74-13.05-11.19-25.44-16.96-38.4l-16.81,7.4L866.08,284.34z"/>
		<path class="st1" d="M912.01,414.03c-3.32-1.34-6.87-1.32-10.2-1.18c-3.61,0.16-7.07,0.74-10.16,3.01
			c-5.37,3.72-6.8,9.89-6.5,16.54l0.95,21.39c0.07,1.56,0.15,3.26,0.5,4.8c0.77,4.65,2.4,12.46,6.59,14.18
			c1.44,0.57,3.14,0.43,4.7,0.29c0.42-0.02,0.99-0.11,1.41-0.13l4.39-0.2l-1.33-29.89c-0.07-1.7,5.17-1.93,5.24-0.24l1.42,31.87
			c0.04,0.99-1.05,1.96-2.54,2.03l-9.42,0.42c-3.19,0.14-6.03,0.05-8.39-2.04c-4.94-4.18-7.34-11.81-7.6-17.69
			c-0.21-4.67-0.35-9.42-0.57-14.31l-0.63-14.17c-0.43-9.56,7.79-17.95,17.66-19.45c1.48-0.21,3.1-0.42,4.8-0.5
			c6.45-0.29,12.82,0.92,17.63,5.32c5.47,5.01,6.6,11.13,6.89,17.79l0.89,19.83c0.26,5.88,0.02,14.76-4.29,20.13l1.06-0.05
			c1.56-0.07,1.73,3.83,0.17,3.9l-9.35,0.42c-1.06,0.05-1.79-0.27-2.09-0.69c-0.9-1.02-0.14-3.12,1.84-3.28
			c5.66-0.39,7.11-9.33,7.51-14.74c0.17-2.42,0.05-5.11-0.29-12.91c-0.16-3.61-0.44-8.28-0.72-14.59
			C921.28,422.99,918.1,416.81,912.01,414.03z"/>
		<path class="st1" d="M868.22,570.32l1.7-9.28c0.31-1.67,5.12-0.79,5.12,0.79c3.28-1.78,6.7-3.53,10.04-5.23l4.8-2.58l6.74-36.76
			l-12.98-2.37l-0.49,2.65c-0.29,1.6-5.38,0.67-5.09-0.93l1.69-9.21c0.31-1.67,5.4-0.74,5.09,0.93l-0.49,2.65l36.13,6.62l0.48-2.65
			c0.31-1.68,5.47-0.73,5.16,0.95l-4.5,24.55c-0.58,3.21-1.17,6.42-1.69,9.64c-0.53,3.29-1.13,6.57-1.73,9.85
			c-0.43,2.37-0.87,4.74-1.37,7.1c-1.49,6.58-7.64,11.79-15.05,11.3c-8.03-0.61-14.08-7.34-13.55-14.96
			c0.08-1.21,0.34-2.61,0.57-3.86l-6.46,3.36l-8.3,4.39l-0.73,3.98C873.01,572.86,867.92,571.92,868.22,570.32z M897.37,541.85
			c-0.42,2.3-0.84,4.6-1.32,6.82c-0.49,2.29-0.99,4.65-1.42,6.95c-0.49,2.65-0.9,5.31-1.16,7.93c-0.65,5.51,3.08,9.94,7.55,10.75
			c2.09,0.38,4.49-0.11,6.73-1.72c3.14-2.17,3.83-5.93,4.53-9.77c2.57-14.02,5.01-27.34,7.49-41.31l-18.06-3.31L897.37,541.85z"/>
		<path class="st1" d="M833.43,659.66l3.72-8.51c0.68-1.56,5.43,0.51,4.75,2.08l-0.52,1.17l4.8-0.53c3.54-0.47,6.88-0.86,8.9-1.06
			l13.65-31.19c-3.21-4.35-4.89-6.71-8.13-11.14l-0.51,1.17c-0.69,1.56-5.43-0.51-4.74-2.07l3.75-8.58
			c0.63-1.43,5.37,0.65,4.74,2.08l-1.28,2.92l20.55,27.88c1.81,2.42,2.53,3.59,4.47,6.06l1.37-3.12c0.62-1.43,5.37,0.65,4.74,2.08
			l-8.56,19.56c-0.68,1.56-5.43-0.51-4.74-2.07l0.97-2.21l-2.37,0.28l-25.33,2.85l-14.24,1.59l-1.25,2.86
			C837.52,663.23,832.78,661.16,833.43,659.66z M861,652.21c7.38-0.95,14.93-1.75,22.32-2.54l2.3-5.26l-3.21-4.34l-5.73-7.77
			l-4.37-5.94L861,652.21z M883.32,649.67c0.09-0.04,0.19-0.07,0.32-0.02c0.19-0.07,0.38,0.01,1.03,0.3l-1.49,0.04L883.32,649.67z
			 M885.63,644.41l0.11-0.26l0.98,1.13c-0.65-0.28-0.79-0.5-0.89-0.62L885.63,644.41z"/>
		<path class="st1" d="M801.84,738.91c0.48-0.88,1.18-1.95,1.82-2.8c0.51-0.68,1.07-1.33,1.58-2.01l24.18-32.56l-10.42-7.73
			l-1.61,2.16c-0.97,1.31-5.13-1.78-4.16-3.09l5.58-7.51c0.93-1.25,5.09,1.83,4.15,3.08l-1.69,2.28l29.2,21.68l1.7-2.28
			c0.93-1.25,5.08,1.83,4.15,3.09l-14.79,19.92c-1.99,2.68-3.96,5.45-5.91,8.07c-1.69,2.28-3.24,4.48-4.93,6.76
			c-1.65,2.22-3.36,4.4-5.04,6.68c-4.17,5.38-11.86,7.17-18.29,3.46C800.66,754.28,798.32,745.31,801.84,738.91z M808.49,754.09
			c1.65,1.22,3.98,1.9,6.66,1.5c3.73-0.5,6.01-3.58,8.23-6.69l24.82-33.42l-14.58-10.82l-14.2,19.13c-1.4,1.88-2.89,3.77-4.43,5.72
			c-1.41,1.78-2.82,3.56-4.17,5.38c-1.61,2.16-3.03,4.2-4.42,6.43C803.39,745.98,804.84,751.39,808.49,754.09z"/>
		<path class="st1" d="M703.89,806.22l7.21-5.97c1.2-0.99,4.5,2.99,3.3,3.99l-2.13,1.76l10.49,12.68l45.95-38.02l-10.49-12.68
			l-2.08,1.72c-1.26,1.04-4.56-2.95-3.3-3.99l7.21-5.97c1.26-1.04,4.56,2.95,3.3,3.99l-2.13,1.76l23.28,28.14l2.13-1.76
			c1.26-1.04,4.56,2.95,3.3,3.99l-7.21,5.97c-1.26,1.04-4.56-2.95-3.3-3.99l2.08-1.71l-9.49-11.48l-45.96,38.02l9.49,11.47
			l2.13-1.76c1.2-1,4.5,2.99,3.3,3.99l-7.21,5.97c-1.31,1.09-4.61-2.91-3.3-3.99l2.08-1.72l-23.28-28.14l-2.08,1.72
			C705.88,811.29,702.58,807.31,703.89,806.22z"/>
		<path class="st1" d="M656.06,833.81l18.64-10.25c1.49-0.82,3.99,3.71,2.5,4.54l-7.65,4.2l17.6,32l7.64-4.2
			c1.49-0.82,3.99,3.72,2.5,4.54l-18.64,10.26c-1.43,0.78-3.92-3.75-2.5-4.54l7.64-4.21l-17.6-32l-7.64,4.2
			C657.13,839.13,654.63,834.6,656.06,833.81z"/>
		<path class="st1" d="M636.86,877.17c-0.15-2.64-0.97-4.84-1.74-7.12l-0.36-1.07c-2.37-6.99-8.83-11.91-16.79-11.31
			c-1.97,0.15-3.97,0.67-7.86,1.99c-1.54,0.52-3.4,1.23-5.68,2c-3.27,1.18-8.51,2.96-13.61,4.69c-2.35,0.8-4.5,1.75-6.75,3.04
			c-3.74,2.24-10.29,6.33-8.94,10.74c0.44,1.5-3.3,2.62-3.74,1.12l-3.12-9.2c-0.55-1.61,3.15-2.86,3.7-1.25l0.68,2.01
			c2.24-3.53,5.93-6.13,8.91-7.96c3.19-1.84,6.44-3.08,9.93-4.27l17.46-5.92c5.57-1.89,11.51-2.93,17.58-0.5
			c7.44,3.17,10.82,10.03,13.25,17.44c2.69,8.37,0.21,17.83-6.45,23.15c-2.5,1.9-5.63,3.26-8.52,4.24l-2.48,0.84
			c-0.94,0.32-1.9,0.57-2.78,0.87l-16.52,5.6c-5.1,1.73-12.92,3.18-18.76,0.75l0.38,1.14c0.5,1.48-3.19,2.73-3.69,1.25l-3.03-8.93
			c-0.32-0.94-0.21-1.73,0.08-2.2l0.02,0.07c0.8-1.17,3-1.09,3.63,0.79c1.8,4.85,10.18,4.18,15.22,3.37
			c2.4-0.44,4.75-1.24,6.96-1.99l17.73-6.01c4.23-1.44,8.39-2.85,11.27-6.07C635.56,885.25,637.08,881.14,636.86,877.17z"/>
		<path class="st1" d="M414.78,881.01c3.31-2.24,6.5-2.22,9.97-2.04l51.69,2.65c1.62,0.08,1.36,5.25-0.27,5.17l-2.76-0.14
			l-1.85,36.04l2.76,0.14c1.63,0.09,1.37,5.25-0.26,5.17l-50.99-2.61c-3.04-0.16-5.88-0.3-8.91-2.02c-2.97-1.64-5.02-4.59-5.6-8.38
			c-0.17-0.93-0.18-1.93-0.13-3.06c0.03-0.64,0.14-1.34,0.17-1.91l0.97-18.91C409.86,887.01,411.61,883.26,414.78,881.01z
			 M413.37,893.29l-0.96,18.62c-0.22,4.39,2.95,7.46,7.68,8.13c1.06,0.13,2.47,0.27,3.53,0.32c0.85,0.04,1.77,0.02,2.62,0.06
			c0.99,0.05,2.06,0.03,3.05,0.09l38.52,1.98l1.85-36.04l-46.1-2.36c-4.25-0.22-8,0.87-9.53,4.48
			C413.39,890.03,413.38,891.66,413.37,893.29z"/>
		<path class="st1" d="M309.47,888.81l-1.91,6.53l53.59,15.64l5.56-19.07c-2.38,0.56-4.64,0.71-6.66,0.79
			c-9.35,0.38-18.57-1.43-27.29-3.97c-1.59-0.39-0.12-5.43,1.47-5.04c8.51,2.48,17.38,4.26,26.12,3.93c2.78-0.15,5.55-0.3,7.97-1.22
			l3-10.28L317.8,860.5l-1.87,6.4c-0.46,1.57-4.2,0.47-3.75-1.09l2.6-8.92c0.26-0.89,0.62-1.37,1.15-1.66
			c0.53-0.29,1.01-0.44,1.42-0.32l61.83,18.04c1.5,0.44,0.03,5.47-1.47,5.04l-2.65-0.78l-10.18,34.86l2.66,0.78
			c1.5,0.44,0.05,5.41-1.45,4.97l-61.89-18.07c-0.41-0.12-0.74-0.51-1.08-1.13c-0.24-0.44-0.27-1.11-0.03-1.93l2.62-8.99
			C306.16,886.21,309.91,887.31,309.47,888.81z"/>
		<path class="st1" d="M264.46,874.83c1.2-0.54,2.01-1.38,2.54-2.31c0.35-0.62,0.62-1.36,0.76-2.18c0.66-3.87-4.35-7.39-8.23-10.18
			c-0.85-0.65-1.74-1.24-2.44-1.72l-11.56-9.22c-3.31-2.63-6.57-5.22-9.92-7.79c-1.28-1.06-2.43-2.04-3.77-2.97l-4.26-3.41
			c-0.18-0.11-0.42-0.4-0.67-0.55c-1.43-1.06-2.77-2.15-3.99-4.16c-1.88-3.28-1.62-7.46,0.35-10.91c0.46-0.8,1.24-1.74,1.75-2.35
			c4.4-4.27,10.15-3.76,14.78-1.44c2.35,1.18,4.66,2.42,7,3.75c1.85,1.06,3.66,2.17,5.51,3.23c1.97,1.13,3.84,2.28,5.69,3.33
			c1.36,0.77,2.77,1.58,4.22,2.33c1.48,0.84,3.11,1.7,4.59,2.54c1.85,1.06,3.6,2.14,5.22,3.31c3.79,2.65,8.45,6.79,10.18,11.77
			l0.32-0.55c0.84-1.48,4.23,0.46,3.39,1.94l-4.68,8.19c-0.81,1.41-4.2-0.52-3.39-1.93l0.25-0.44c0.81-1.42,0.48-3.56-0.21-5.34
			c-2.23-4.54-7.09-8.46-11.58-11.03l-23.77-13.58c-1.23-0.7-2.43-1.47-3.76-2.14c-2.65-1.51-5.99-3.1-8.64-2.32
			c-1.62,0.55-2.82,1.5-3.48,2.67c-0.21,0.37-0.4,0.99-0.6,1.62l0.04-0.06c-1.11,3.94,3.76,7.7,7.58,10.45
			c0.7,0.48,1.58,1.23,2.29,1.71l21.51,16.95l8.36,6.65c0.25,0.15,0.48,0.44,0.67,0.55c1.25,0.96,2.5,1.92,3.65,3.47
			c2.83,3.9,2.27,9.46-0.83,13.33c-4.04,4.79-9.57,4.74-14.43,2.53c-2.44-1.15-4.79-2.49-7.19-3.86c-2.03-1.16-4.06-2.32-6.1-3.48
			c-1.87-1.15-3.78-2.24-5.69-3.33c-1.36-0.77-2.83-1.62-4.22-2.33c-1.54-0.88-3.08-1.76-4.62-2.64c-1.85-1.05-3.63-2.07-5.31-3.28
			c-3.82-2.75-8.38-6.91-10.17-11.93l-0.6,1.05c-0.84,1.48-4.23-0.46-3.39-1.93l4.68-8.19c0.53-0.92,1.15-1.3,1.7-1.4
			c1.37-0.11,2.77,1.58,1.78,3.31c-0.85,1.64-0.73,3.42,0.18,5.41c2.02,4.75,7.03,8.43,11.58,11.03l24.07,13.75
			c1.36,0.77,2.74,1.64,4.19,2.39C258.59,874.66,261.87,876.21,264.46,874.83z"/>
		<path class="st1" d="M189.14,776.77l16.36,13.72c1.3,1.09-2.07,5.11-3.37,4.02l-6.68-5.61L171.88,817l6.68,5.6
			c1.3,1.09-2.07,5.12-3.37,4.02l-16.36-13.72c-1.3-1.09,2.07-5.11,3.37-4.02l6.68,5.6l23.56-28.09l-6.68-5.6
			C184.46,779.7,187.84,775.68,189.14,776.77z"/>
		<path class="st1" d="M110.28,717.74l2.12-1.77c2.45-2.05,4.93-3.39,8.14-3.21c6.52,0.28,13.1,4.94,16.83,9.4l9.24,11.04
			c3.14,3.75,6.18,7.5,9.14,11.03c6.23,7.45,4.7,19.09-2.24,26.28c-1.1,1.11-2.21,2.22-3.57,3.36c-4.95,4.14-10.8,7.09-17.29,6.51
			c-7.49-0.67-12.1-4.85-16.38-9.96l-12.88-15.39c-3.73-4.46-9.02-11.78-8.81-18.71l-0.81,0.68c-1.25,1.04-3.75-1.95-2.5-2.99
			l7.23-6.05c0.82-0.68,1.49-0.87,2.03-0.77c1.33,0.37,2.05,2.45,0.53,3.72c-4.27,3.85,0.1,11.94,3.02,16.43
			c1.33,2.03,3.1,4.15,8.11,10.14c2.32,2.77,5.42,6.37,9.52,11.27c4.46,5.33,10.68,8.35,17.31,6.87c3.46-0.95,6.27-3.12,8.88-5.3
			c2.77-2.32,5.16-4.88,6.26-8.66c2.07-6.26-0.59-11.98-4.92-17.15l-13.79-16.48c-1.05-1.25-2.09-2.5-3.3-3.62
			c-3.54-3.23-9.52-8.4-14-7.23c-0.87,0.17-1.73,0.8-2.93,1.8c-0.71,0.59-1.41,1.18-2.34,1.95c-0.99,0.92-2.08,1.83-3.87,3.33
			c5.3,6.11,11.76,12.17,18.43,16.39c2.29,1.41,5.32,3.04,7.49,3.54c1.52,0.39-0.4,4.49-2.01,4.45c-2.91-0.71-6.37-2.53-8.56-3.94
			c-7.83-4.82-14.55-11.31-20.38-18.17C102.18,724.42,103.81,723.16,110.28,717.74z"/>
		<path class="st1" d="M77.02,620.67l4.19,8.37c0.76,1.52-3.93,3.87-4.69,2.35l-1.17-2.35c-5.61,3.37-10.4,8.22-13.25,14.41
			l0.06-0.03c-4.72,10.38-3.73,22.81-0.96,33.87c1.27,5.39,3.05,11,5.27,15.76l32.72-16.39l-1.24-2.47
			c-0.73-1.46,3.96-3.81,4.69-2.35l4.22,8.44c0.76,1.52-3.96,3.81-4.69,2.35l-1.21-2.41L68.25,696.6l1.21,2.41
			c0.76,1.52-4.03,3.84-4.76,2.38l-2.57-5.29c-4.67-9.64-8.61-27.33-8.08-38.63c0.69-7.96,3.51-15.8,8.23-22.04l-19.72,9.87
			l1.24,2.47c0.76,1.52-3.99,3.9-4.76,2.38l-4.19-8.37c-0.76-1.52,3.99-3.9,4.76-2.38l1.24,2.47l32.72-16.38l-1.24-2.47
			C71.57,621.5,76.26,619.15,77.02,620.67z"/>
		<path class="st1" d="M18.1,537.66l-6.63,1.55l12.66,54.36l19.34-4.51c-1.66-1.8-2.9-3.69-3.96-5.41
			c-4.91-7.96-7.86-16.88-9.92-25.73c-0.44-1.57,4.67-2.76,5.11-1.19c2.01,8.63,4.81,17.23,9.39,24.68
			c1.49,2.35,2.99,4.69,4.97,6.34l10.43-2.43l-12.64-54.29l-6.49,1.51c-1.59,0.37-2.47-3.43-0.88-3.8l9.05-2.11
			c0.9-0.21,1.5-0.13,2.01,0.19c0.51,0.32,0.88,0.67,0.98,1.08l14.61,62.72c0.35,1.52-4.76,2.71-5.11,1.19l-0.63-2.69l-35.37,8.24
			l0.63,2.69c0.35,1.52-4.69,2.7-5.04,1.18L5.97,538.45c-0.1-0.41,0.08-0.89,0.46-1.49c0.26-0.43,0.84-0.78,1.67-0.97l9.12-2.12
			C18.73,533.51,19.62,537.31,18.1,537.66z"/>
		<path class="st1" d="M48.08,430.47l-0.07,9.5c-0.01,1.7-4.98,1.67-5.25,0.11c-2.92,2.32-5.99,4.64-8.98,6.88l-4.28,3.37
			l-0.26,37.65l13.19,0.09l0.02-2.7c0.01-1.7,5.26-1.66,5.25,0.04l-0.07,9.43c-0.01,1.63-5.26,1.59-5.25-0.04l0.02-2.77l-36.87-0.26
			l-0.02,2.77c-0.01,1.63-5.33,1.59-5.32-0.04l0.18-25.17c0.02-3.26,0.05-6.52,0-9.86c-0.05-3.33-0.02-6.67,0-10
			c0.02-2.48,0.04-4.89,0.12-7.3c0.33-6.74,5.55-13.01,12.93-13.81c8.09-0.8,15.21,4.79,16.08,12.45c0.13,1.21,0.12,2.63,0.11,3.9
			l5.78-4.43l7.42-5.76l0.03-4.11C42.84,428.8,48.09,428.84,48.08,430.47z M24.15,463.77c0.02-2.34,0.03-4.68,0.12-7.02
			c0.09-2.34,0.17-4.75,0.19-7.09c0.02-2.76-0.03-5.39-0.23-8.08c-0.31-5.53-4.83-9.25-9.37-9.29c-2.13-0.02-4.4,0.82-6.33,2.79
			c-2.72,2.75-2.74,6.58-2.77,10.48c-0.1,14.32-0.2,28.01-0.23,42.26l18.44,0.13L24.15,463.77z"/>
	</g>
</g>
<g>
	<path class="st2" d="M-1186.3,722.76c0,38.53,24.55,71.34,58.86,83.62c9.35,3.35,19.42,5.17,29.92,5.17h89.12V633.97h-89.12
		c-10.5,0-20.58,1.82-29.92,5.17C-1161.75,651.42-1186.3,684.22-1186.3,722.76z"/>
	<path class="st2" d="M-919.7,791.33c0,34.62-25.54,63.28-58.82,68.13c-0.07,0.01-0.12,0.02-0.19,0.03v40.55h-118.38V722.46h108.52
		c3.35,0,6.64,0.24,9.86,0.71c0.07,0.01,0.12,0.02,0.19,0.03C-945.24,728.05-919.7,756.71-919.7,791.33z"/>
</g>
<path id="SVGID_x5F_1_x5F_" style="fill:none;" d="M-1089.24,948.42c-100.19-20.01-165.19-117.46-145.18-217.65
	c20.01-100.19,117.46-165.19,217.65-145.18s165.19,117.46,145.18,217.65S-989.04,968.43-1089.24,948.42z"/>
<text><textPath  xlink:href="#SVGID_x5F_1_x5F_" startOffset="166.6667%">
<tspan  class="st4" style="font-family:'EuphoriaExpand-Bold'; font-size:31.5px; letter-spacing:261;">web designer </tspan><tspan  class="st4" style="font-family:'EuphoriaExpand-Bold'; font-size:31.5px; letter-spacing:274;">graphic DESIGNER</tspan></textPath>
</text>
<g>
	<path class="st2" d="M-1344.3,69.76c0,38.53,24.55,71.34,58.86,83.62c9.35,3.35,19.42,5.17,29.92,5.17h89.12V-19.03h-89.12
		c-10.5,0-20.58,1.82-29.92,5.17C-1319.75-1.58-1344.3,31.22-1344.3,69.76z"/>
	<path class="st2" d="M-1077.7,138.33c0,34.62-25.54,63.28-58.82,68.13c-0.07,0.01-0.13,0.02-0.19,0.03v40.55h-118.38V69.46h108.52
		c3.35,0,6.64,0.24,9.86,0.71c0.07,0.01,0.13,0.02,0.19,0.03C-1103.24,75.05-1077.7,103.71-1077.7,138.33z"/>
</g>
<path id="SVGID_x5F_2_x5F_" style="fill:none;" d="M-1080.19,244.81c-72.25,72.25-189.38,72.25-261.63,0
	c-72.25-72.25-72.25-189.38,0-261.63c72.25-72.25,189.38-72.25,261.63,0S-1007.94,172.57-1080.19,244.81z"/>
<text><textPath  xlink:href="#SVGID_x5F_2_x5F_" startOffset="166.6667%">
<tspan  class="st4" style="font-family:'EuphoriaExpand-Bold'; font-size:37.5px; letter-spacing:261;">web and graphic DESIGNER</tspan></textPath>
</text>
<circle class="st3" cx="-2405" cy="452" r="238"/>
<g>
	<path class="st2" d="M-2538.3,407.76c0,38.53,24.55,71.34,58.86,83.62c9.35,3.35,19.42,5.17,29.92,5.17h89.12V318.97h-89.12
		c-10.5,0-20.58,1.82-29.92,5.17C-2513.75,336.42-2538.3,369.22-2538.3,407.76z"/>
	<path class="st2" d="M-2271.7,476.33c0,34.62-25.54,63.28-58.82,68.13c-0.07,0.01-0.13,0.02-0.19,0.03v40.55h-118.38V407.46h108.52
		c3.35,0,6.64,0.24,9.86,0.71c0.07,0.01,0.13,0.02,0.19,0.03C-2297.24,413.05-2271.7,441.71-2271.7,476.33z"/>
</g>
<path id="SVGID_x5F_3_x5F_" style="fill:none;" d="M-2405,675c-123.16,0-223-99.84-223-223s99.84-223,223-223s223,99.84,223,223
	S-2281.84,675-2405,675z"/>
<text><textPath  xlink:href="#SVGID_x5F_3_x5F_" startOffset="166.6667%">
<tspan  class="st4" style="font-family:'EuphoriaExpand-Bold'; font-size:45.2027px; letter-spacing:261;">GRAPHIC AND WEB DESIGNER</tspan></textPath>
</text>
<g>
	<path class="st2" d="M-1971.47,735.59c0,38.53,24.55,71.34,58.86,83.62c9.35,3.35,19.42,5.17,29.92,5.17h89.12V646.8h-89.12
		c-10.5,0-20.58,1.82-29.92,5.17C-1946.92,664.25-1971.47,697.05-1971.47,735.59z"/>
	<path class="st2" d="M-1704.87,804.16c0,34.62-25.54,63.28-58.82,68.13c-0.07,0.01-0.12,0.02-0.19,0.03v40.55h-118.38V735.29
		h108.52c3.35,0,6.64,0.24,9.86,0.71c0.07,0.01,0.13,0.02,0.19,0.03C-1730.42,740.88-1704.87,769.54-1704.87,804.16z"/>
</g>
<g>
	<path class="st4" d="M-2015.93,860.75l1.27-0.72c1.47-0.83,2.89-1.29,4.54-0.9c3.37,0.76,6.35,3.81,7.87,6.49l3.76,6.62
		c1.28,2.25,2.5,4.49,3.71,6.61c2.54,4.47,0.63,10.38-3.66,13.46c-0.68,0.47-1.36,0.95-2.17,1.41c-2.97,1.68-6.29,2.67-9.61,1.75
		c-3.83-1.06-5.84-3.67-7.58-6.74l-5.24-9.23c-1.52-2.67-3.58-6.98-2.81-10.56l-0.49,0.28c-0.75,0.42-1.77-1.37-1.02-1.79l4.34-2.46
		c0.49-0.28,0.86-0.31,1.13-0.21c0.65,0.32,0.83,1.47-0.08,1.99c-2.59,1.6-1.08,6.22,0.01,8.83c0.5,1.18,1.22,2.46,3.26,6.04
		c0.94,1.66,2.22,3.83,3.88,6.76c1.81,3.2,4.77,5.36,8.35,5.22c1.89-0.17,3.56-1.03,5.12-1.92c1.66-0.94,3.15-2.05,4.08-3.91
		c1.67-3.06,0.83-6.29-0.93-9.39l-5.61-9.88c-0.42-0.75-0.85-1.5-1.38-2.19c-1.53-2.02-4.16-5.27-6.6-5.09
		c-0.47,0.01-0.98,0.25-1.69,0.66c-0.42,0.24-0.85,0.48-1.4,0.8c-0.6,0.38-1.25,0.75-2.33,1.37c2.18,3.68,4.96,7.45,8.03,10.27
		c1.06,0.95,2.48,2.08,3.56,2.55c0.76,0.35-0.63,2.3-1.47,2.13c-1.44-0.65-3.07-1.92-4.08-2.86c-3.62-3.25-6.5-7.26-8.88-11.39
		C-2020.77,863.46-2019.81,862.95-2015.93,860.75z"/>
	<path class="st4" d="M-2021.66,808.4l1.2,4.88c0.22,0.87-2.33,1.5-2.68,0.74c-1.2,1.57-2.47,3.16-3.71,4.7l-1.75,2.29l4.77,19.34
		l6.77-1.67l-0.34-1.38c-0.22-0.87,2.48-1.54,2.69-0.67l1.2,4.84c0.21,0.84-2.49,1.5-2.7,0.67l-0.35-1.42l-18.94,4.67l0.35,1.42
		c0.21,0.84-2.52,1.51-2.73,0.67l-3.19-12.93c-0.41-1.67-0.83-3.35-1.29-5.05c-0.46-1.7-0.88-3.41-1.3-5.13
		c-0.31-1.27-0.62-2.51-0.89-3.76c-0.71-3.5,1.15-7.39,4.83-8.76c4.04-1.46,8.42,0.47,9.87,4.29c0.23,0.6,0.41,1.33,0.57,1.98
		l2.38-3.02l3.05-3.92l-0.52-2.11C-2024.56,808.23-2021.87,807.57-2021.66,808.4z M-2029.58,828.59c-0.3-1.2-0.59-2.4-0.85-3.61
		s-0.53-2.46-0.83-3.66c-0.35-1.42-0.72-2.76-1.17-4.12c-0.88-2.8-3.68-4.11-6.01-3.54c-1.09,0.27-2.15,0.99-2.88,2.26
		c-1.03,1.76-0.55,3.73-0.05,5.73c1.82,7.36,3.55,14.38,5.39,21.69l9.47-2.34L-2029.58,828.59z"/>
	<path class="st4" d="M-2022.63,757.83l-0.14,4.95c-0.03,0.9-2.8,0.82-2.78-0.08l0.02-0.67c-0.34,0.22-0.69,0.43-1.07,0.61
		l-3.08,1.64l-4.88,2.64c-0.09,4.58,0.23,9.16,1.57,13.48c0.41,1.4,0.93,2.91,1.69,3.95l-0.22-0.08l3.17,1.93
		c1.03,0.67,1.07,0.67,2.1,1.33l0.02-0.67c0.03-0.9,2.8-0.82,2.78,0.08l-0.14,4.99c-0.02,0.83-2.8,0.75-2.77-0.08l0.05-1.72
		c-0.85-0.55-1.55-0.94-2.44-1.46l-16.64-10.26l-0.05,1.76c-0.02,0.86-2.8,0.79-2.77-0.08l0.32-11.32c0.03-0.9,2.8-0.82,2.77,0.08
		l-0.04,1.31l1.11-0.64l18.59-10.02l0.05-1.73C-2025.38,756.89-2022.61,756.96-2022.63,757.83z M-2045.31,775.77l0,0.15l-0.7-0.36
		c0.34,0.01,0.45,0.09,0.56,0.13L-2045.31,775.77z M-2045.22,772.69c-0.04,0.04-0.08,0.07-0.15,0.07c-0.11,0.07-0.23,0.11-0.57,0.1
		l0.72-0.32L-2045.22,772.69z M-2037.37,768.45c-2.59,1.39-5.22,2.89-7.85,4.25l-0.09,3.07l2.44,1.49l7.49,4.64l-0.27-1.02
		C-2036.97,776.79-2037.38,772.65-2037.37,768.45z"/>
	<path class="st4" d="M-2021.16,712.26c-0.08,0.52-0.28,1.17-0.44,1.71c-0.14,0.47-0.27,0.9-0.41,1.33l-6.31,20.62l6.56,2.01
		l0.42-1.36c0.25-0.83,2.91-0.01,2.65,0.81l-1.46,4.77c-0.24,0.79-2.89-0.02-2.65-0.81l0.44-1.43l-18.46-5.65l-0.44,1.43
		c-0.24,0.79-2.89-0.02-2.65-0.81l3.86-12.62c0.52-1.69,1.01-3.42,1.52-5.1c0.44-1.43,0.83-2.84,1.26-4.24
		c0.44-1.43,0.92-2.86,1.34-4.26c1.14-3.46,4.69-5.7,8.55-4.99C-2023.32,704.34-2020.53,708.41-2021.16,712.26z M-2027.22,705.82
		c-1.04-0.32-2.33-0.2-3.63,0.46c-1.74,0.96-2.33,2.86-2.89,4.84l-6.47,21.15l9.21,2.82l3.7-12.08c0.37-1.22,0.78-2.43,1.2-3.67
		c0.39-1.14,0.79-2.31,1.14-3.46c0.42-1.36,0.78-2.66,1.06-3.99C-2023.22,709-2024.93,706.52-2027.22,705.82z"/>
	<path class="st4" d="M-1982.18,662.18l-2.76,4.16c-0.48,0.72-2.79-0.81-2.31-1.53l0.79-1.19l-8.59-5.7
		c-2.25,3.46-4.49,7.11-6.5,10.68c-2.39,4.35-4.94,9.42-6.55,13.75c-0.33,0.91-0.59,1.77-0.86,2.72c-0.16,0.52-0.24,0.83-0.44,1.42
		l5.41,3.59l0.81-1.22c0.5-0.75,2.81,0.78,2.31,1.53l-2.76,4.16c-0.48,0.72-2.79-0.81-2.31-1.53l0.83-1.25l-16.16-10.72l-0.83,1.25
		c-0.48,0.72-2.79-0.81-2.31-1.53l2.76-4.16c0.5-0.75,2.81,0.78,2.31,1.53l-0.81,1.22l8.38,5.55l0.08-0.4
		c0.94-3.38,2.46-6.83,3.92-9.91c2.96-6.09,6.69-12.53,10.41-18.21l-5.25-3.48l-0.79,1.19c-0.48,0.72-2.79-0.81-2.31-1.53l2.76-4.16
		c0.48-0.72,2.79,0.81,2.31,1.53l-0.81,1.22l16.16,10.72l0.81-1.22C-1984.02,659.93-1981.7,661.46-1982.18,662.18z"/>
	<path class="st4" d="M-1962.37,642.61l-8.14,7.82c-0.65,0.62-2.57-1.38-1.92-2l3.33-3.19l-13.43-13.98l-3.33,3.19
		c-0.65,0.62-2.57-1.38-1.92-2l8.14-7.82c0.65-0.62,2.57,1.38,1.92,2l-3.33,3.19l13.43,13.98l3.33-3.19
		C-1963.64,639.99-1961.72,641.99-1962.37,642.61z"/>
	<path class="st4" d="M-1958.63,618.01c0.4,1.34,1.09,2.37,1.77,3.45l0.32,0.51c2.07,3.31,6.04,5.11,10.09,3.81
		c0.98-0.35,1.94-0.86,3.78-2.02c0.76-0.48,1.63-1.07,2.71-1.75c1.54-1.01,4.05-2.58,6.49-4.12c1.11-0.7,2.12-1.42,3.11-2.39
		c1.67-1.58,4.55-4.53,3.32-6.64c-0.41-0.72,1.38-1.75,1.79-1.03l2.75,4.38c0.46,0.73-1.29,1.83-1.75,1.1l-0.6-0.95
		c-0.75,2.06-2.34,3.9-3.64,5.21c-1.42,1.33-2.94,2.37-4.62,3.43l-8.29,5.2c-2.67,1.67-5.6,2.94-9.07,2.41
		c-4.25-0.7-6.84-3.85-8.97-7.39c-2.43-4.01-2.3-9.18,0.48-12.79c1.06-1.28,2.5-2.37,3.9-3.24l1.17-0.74
		c0.41-0.26,0.91-0.53,1.32-0.79l7.88-4.94c2.42-1.51,6.29-3.24,9.62-2.67l-0.34-0.54c-0.46-0.73,1.29-1.83,1.75-1.1l2.67,4.26
		c0.28,0.44,0.3,0.83,0.24,1.09l-0.02-0.03c-0.27,0.7-1.39,0.96-1.95,0.07c-1.57-2.29-5.8-0.92-8.35,0.1
		c-1.16,0.55-2.3,1.27-3.35,1.92l-8.42,5.28c-2.03,1.28-4,2.51-5.09,4.52C-1958.97,613.66-1959.25,615.96-1958.63,618.01z"/>
	<path class="st4" d="M-1844.68,594.19l-4.91,0.62c-0.89,0.11-1.24-2.64-0.35-2.75l0.67-0.08c-0.26-0.31-0.53-0.61-0.76-0.96
		l-2.09-2.8l-3.35-4.42c-4.54,0.61-9.02,1.62-13.08,3.61c-1.32,0.62-2.74,1.36-3.65,2.27l0.05-0.23l-1.42,3.43
		c-0.5,1.12-0.5,1.16-1,2.28l0.67-0.08c0.89-0.11,1.24,2.64,0.35,2.75l-4.95,0.62c-0.82,0.1-1.16-2.65-0.35-2.75l1.71-0.22
		c0.41-0.92,0.7-1.68,1.07-2.63l7.61-18l-1.75,0.22c-0.86,0.11-1.2-2.65-0.35-2.75l11.24-1.41c0.89-0.11,1.24,2.64,0.35,2.75
		l-1.3,0.16l0.81,0.99l12.74,16.85l1.71-0.22C-1844.17,591.32-1843.82,594.08-1844.68,594.19z M-1857.42,581.23
		c-1.77-2.35-3.65-4.72-5.39-7.11l-3.05,0.38l-1.1,2.63l-3.44,8.11l0.97-0.42C-1865.6,582.9-1861.57,581.87-1857.42,581.23z
		 M-1865.86,574.5l-0.15,0.02l0.25-0.75c0.04,0.33-0.02,0.46-0.04,0.57L-1865.86,574.5z M-1862.81,574.12
		c-0.04-0.03-0.08-0.07-0.09-0.14c-0.09-0.1-0.14-0.21-0.18-0.54l0.42,0.67L-1862.81,574.12z"/>
	<path class="st4" d="M-1793.91,599.34l-4.9-0.72c-0.89-0.13-0.49-2.88,0.4-2.75l1.37,0.2c0.24-3.45-0.41-7-2.23-10.1l0,0.04
		c-3.06-5.19-8.75-8.53-14.38-10.68c-2.72-1.08-5.69-2.01-8.43-2.49l-2.82,19.14l1.45,0.21c0.85,0.13,0.45,2.87-0.4,2.75l-4.93-0.73
		c-0.89-0.13-0.45-2.87,0.4-2.75l1.41,0.21l2.82-19.14l-1.41-0.21c-0.89-0.13-0.44-2.91,0.41-2.78l3.07,0.49
		c5.59,0.9,14.45,4.55,19.18,8.2c3.24,2.71,5.78,6.31,7.06,10.25l1.7-11.54l-1.45-0.21c-0.89-0.13-0.48-2.91,0.41-2.78l4.9,0.72
		c0.89,0.13,0.48,2.91-0.41,2.78l-1.45-0.21l-2.82,19.14l1.45,0.21C-1792.61,596.73-1793.02,599.47-1793.91,599.34z"/>
	<path class="st4" d="M-1747.63,616.19c-2.06,0.47-3.63-0.16-5.31-0.91l-24.95-11.26c-0.79-0.35,0.34-2.85,1.13-2.49l1.33,0.6
		l7.85-17.4l-1.33-0.6c-0.79-0.36,0.34-2.85,1.13-2.5l24.61,11.11c1.47,0.66,2.84,1.28,4,2.71c1.15,1.38,1.59,3.23,1.15,5.21
		c-0.1,0.49-0.28,0.99-0.53,1.53c-0.14,0.31-0.33,0.63-0.45,0.91l-4.12,9.13C-1744.05,614.19-1745.63,615.69-1747.63,616.19z
		 M-1744.56,610.41l4.06-8.99c0.96-2.12-0.02-4.25-2.22-5.48c-0.5-0.27-1.17-0.61-1.68-0.84c-0.41-0.19-0.87-0.35-1.28-0.54
		c-0.48-0.22-1.01-0.41-1.49-0.63l-18.59-8.39l-7.85,17.4l22.25,10.04c2.05,0.93,4.11,1.11,5.56-0.37
		C-1745.21,612.02-1744.88,611.21-1744.56,610.41z"/>
	<path class="st4" d="M-1667.21,661.34l-0.99-1.18c-2.56,1.33-5.17,2.6-7.76,3.95c-3.59,1.85-6.37,3.21-9.93,5.04l0.6,0.72
		c0.56,0.66-1.56,2.45-2.12,1.79l-3.22-3.81c-0.56-0.66,1.56-2.45,2.12-1.79l0.39,0.46l0.27-0.72c0.75-1.96,1.53-3.94,2.23-5.96
		l4.91-13.13c-0.43,0.07-0.89,0.16-1.28,0.29l-12.3,2.58c-2.55,0.58-4.33,0.91-6.93,1.44l0.41,0.49c0.56,0.66-1.56,2.45-2.12,1.79
		l-3.22-3.81c-0.53-0.63,1.59-2.42,2.12-1.79l0.58,0.69l4.8-7.05c2.19-3.27,4.34-6.31,6.5-9.51l-1.16-1.38
		c-0.56-0.66,1.59-2.47,2.15-1.81l3.22,3.81c0.56,0.66-1.59,2.47-2.15,1.81l-0.65-0.77c-3.64,5.28-6.75,9.92-10.4,15.3
		c0.22-0.03,0.38-0.13,0.57-0.14l10.73-2.29l10.76-2.26c0.75-0.1,1.41,0.68,1.16,1.38c-0.28,0.72-0.49,1.4-0.77,2.12l-0.25,0.8
		c-1.26,3.22-2.46,6.39-3.61,9.62l-3.27,8.8c3.06-1.55,6.15-3.18,9.18-4.76l7.01-3.56l-0.8-0.95c-0.58-0.69,1.57-2.5,2.15-1.81
		l3.19,3.78C-1664.51,660.19-1666.66,662-1667.21,661.34z"/>
	<path class="st4" d="M-1646.15,710.95l3.29-1.47l-12.02-26.95l-9.59,4.28c1.04,0.77,1.88,1.63,2.6,2.41
		c3.35,3.64,5.78,7.98,7.73,12.36c0.39,0.77-2.15,1.9-2.53,1.13c-1.91-4.28-4.23-8.46-7.35-11.87c-1.01-1.07-2.02-2.14-3.22-2.79
		l-5.17,2.31l12.01,26.92l3.22-1.44c0.79-0.35,1.63,1.53,0.84,1.88l-4.49,2c-0.45,0.2-0.76,0.22-1.06,0.1
		c-0.3-0.11-0.53-0.26-0.62-0.46l-13.87-31.1c-0.34-0.75,2.2-1.88,2.53-1.13l0.6,1.34l17.53-7.82l-0.6-1.34
		c-0.34-0.75,2.16-1.87,2.5-1.12l13.89,31.13c0.09,0.21,0.05,0.47-0.09,0.82c-0.1,0.25-0.36,0.49-0.77,0.67l-4.52,2.02
		C-1646.07,713.17-1646.91,711.28-1646.15,710.95z"/>
	<path class="st4" d="M-1653.17,765.04c-0.29-0.68-0.42-1.3-1.03-5.53l-0.7-4.79c-0.62-4.23-1.46-10.32-2.76-19.19
		c-0.12-0.82,2.63-1.22,2.75-0.4l0.21,1.45l8.65-1.26l-0.21-1.45c-0.12-0.82,2.63-1.22,2.75-0.4l0.21,1.45l7.53-1.1l-0.21-1.45
		c-0.12-0.82,2.55-1.21,2.67-0.39l3.28,22.48c0.05,0.33,0.13,0.66,0.18,1c0.16,0.81,0.32,1.92,0.31,2.68l-0.01-0.04
		c-0.01,2.77-1.58,5.53-4.64,6.36c-1.97,0.51-3.83,0.22-5.26-0.71c-0.42,2.6-2.21,4.57-5.1,5.29
		C-1648.21,769.93-1651.81,768.37-1653.17,765.04z M-1645.46,767.22c0.89-0.13,1.81-0.6,2.54-1.55c0.76-1.02,0.93-2.48,0.72-3.89
		l-3.56-24.42l-8.65,1.26l3.69,25.31c0.02,0.11,0.07,0.25,0.13,0.4l0.1,0.17C-1649.52,766.41-1647.36,767.49-1645.46,767.22z
		 M-1635.48,735.87l-7.53,1.1l3.2,21.97c0.09,0.36,0.19,0.8,0.34,1.05c0.55,1.21,1.46,2.25,2.49,2.56c0.55,0.11,1.13,0.18,1.64,0.1
		c0.85-0.12,1.73-0.63,2.32-1.51c0.65-1,0.83-2.39,0.67-3.7L-1635.48,735.87z"/>
	<path class="st4" d="M-1664.31,848.73c-0.73-1.98-0.31-3.62,0.23-5.38l7.96-26.19c0.25-0.83,2.87-0.03,2.62,0.8l-0.43,1.4
		l18.26,5.55l0.42-1.4c0.25-0.83,2.87-0.03,2.62,0.8l-7.86,25.83c-0.47,1.54-0.9,2.98-2.17,4.32c-1.22,1.31-3,1.99-5.02,1.81
		c-0.5-0.03-1.01-0.15-1.59-0.33c-0.32-0.1-0.67-0.24-0.96-0.33l-9.58-2.91C-1661.86,852.02-1663.56,850.64-1664.31,848.73z
		 M-1658.18,851.02l9.44,2.87c2.22,0.68,4.21-0.56,5.15-2.9c0.2-0.53,0.45-1.23,0.62-1.77c0.13-0.43,0.24-0.91,0.37-1.34
		c0.15-0.5,0.28-1.05,0.43-1.55l5.93-19.52l-18.26-5.55l-7.1,23.35c-0.66,2.15-0.58,4.21,1.08,5.46
		C-1659.86,850.59-1659.02,850.8-1658.18,851.02z"/>
	<path class="st4" d="M-1675.49,902.89l3.02,1.95l16-24.79l-8.82-5.69c-0.07,1.29-0.34,2.46-0.6,3.49
		c-1.22,4.79-3.52,9.2-6.13,13.23c-0.44,0.75-2.77-0.76-2.33-1.5c2.54-3.94,4.78-8.16,5.93-12.64c0.34-1.43,0.69-2.86,0.58-4.22
		l-4.76-3.07l-15.98,24.76l2.96,1.91c0.72,0.47-0.39,2.2-1.12,1.73l-4.13-2.66c-0.41-0.26-0.6-0.52-0.67-0.83
		c-0.07-0.31-0.07-0.58,0.05-0.77l18.46-28.61c0.45-0.69,2.78,0.81,2.33,1.5l-0.79,1.23l16.13,10.41l0.79-1.23
		c0.45-0.69,2.75,0.79,2.3,1.48l-18.48,28.64c-0.12,0.19-0.37,0.3-0.73,0.38c-0.26,0.05-0.6-0.03-0.98-0.28l-4.16-2.68
		C-1677.3,904.17-1676.19,902.44-1675.49,902.89z"/>
	<path class="st4" d="M-1689.79,923.34c-0.07-0.7-0.35-1.24-0.72-1.66c-0.25-0.28-0.58-0.54-0.96-0.75
		c-1.83-0.99-4.44,0.93-6.49,2.4c-0.47,0.32-0.92,0.66-1.28,0.93l-6.58,4.23c-1.88,1.22-3.73,2.4-5.59,3.65
		c-0.74,0.46-1.43,0.87-2.13,1.38l-2.43,1.55c-0.08,0.08-0.27,0.14-0.39,0.24c-0.78,0.54-1.55,1.02-2.76,1.29
		c-1.96,0.39-4.01-0.45-5.4-2.03c-0.32-0.36-0.66-0.92-0.88-1.28c-1.39-2.93-0.16-5.72,1.79-7.65c0.99-0.98,2-1.92,3.07-2.87
		c0.84-0.75,1.71-1.46,2.55-2.21c0.9-0.79,1.79-1.54,2.63-2.28c0.62-0.55,1.26-1.12,1.88-1.72c0.67-0.6,1.38-1.27,2.05-1.87
		c0.84-0.74,1.68-1.44,2.54-2.05c1.97-1.45,4.83-3.08,7.63-3.1l-0.22-0.25c-0.6-0.67,0.95-2.04,1.54-1.37l3.31,3.73
		c0.57,0.65-0.97,2.01-1.54,1.37l-0.17-0.2c-0.57-0.65-1.7-0.85-2.71-0.8c-2.65,0.35-5.44,2.12-7.49,3.93l-10.83,9.6
		c-0.56,0.5-1.15,0.97-1.71,1.52c-1.21,1.07-2.57,2.47-2.63,3.93c0,0.9,0.27,1.66,0.74,2.2c0.15,0.17,0.43,0.37,0.71,0.57
		l-0.02-0.03c1.79,1.22,4.5-0.58,6.52-2.02c0.36-0.27,0.89-0.58,1.25-0.85l12.14-7.9l4.75-3.06c0.11-0.1,0.3-0.17,0.39-0.24
		c0.69-0.46,1.38-0.93,2.36-1.24c2.44-0.76,5.13,0.47,6.53,2.68c1.71,2.84,0.75,5.6-1.18,7.66c-0.99,1.03-2.06,1.97-3.15,2.94
		c-0.93,0.82-1.85,1.64-2.78,2.46c-0.89,0.74-1.76,1.51-2.63,2.29c-0.62,0.55-1.29,1.14-1.88,1.72c-0.7,0.62-1.4,1.24-2.1,1.87
		c-0.84,0.75-1.66,1.47-2.54,2.1c-2.03,1.45-4.88,3.03-7.7,3.07l0.42,0.48c0.6,0.67-0.95,2.04-1.54,1.37l-3.31-3.73
		c-0.37-0.42-0.46-0.8-0.41-1.09c0.18-0.71,1.26-1.12,1.96-0.33c0.67,0.7,1.59,0.95,2.74,0.83c2.72-0.21,5.41-2.09,7.49-3.93
		l10.97-9.72c0.62-0.55,1.29-1.09,1.91-1.69C-1690.87,926.25-1689.54,924.87-1689.79,923.34z"/>
	<path class="st4" d="M-1751.52,943.42l9.81-5.58c0.78-0.44,2.15,1.97,1.37,2.41l-4.01,2.28l9.58,16.85l4.01-2.28
		c0.78-0.44,2.15,1.97,1.37,2.41l-9.81,5.58c-0.78,0.45-2.15-1.97-1.37-2.41l4.01-2.28l-9.58-16.85l-4.01,2.28
		C-1750.93,946.28-1752.3,943.87-1751.52,943.42z"/>
	<path class="st4" d="M-1795.39,970.37l-0.44-1.39c-0.51-1.61-0.67-3.09,0.06-4.63c1.44-3.14,5.04-5.43,7.97-6.36l7.25-2.32
		c2.46-0.79,4.91-1.53,7.23-2.27c4.89-1.56,10.29,1.52,12.42,6.35c0.32,0.76,0.64,1.53,0.93,2.42c1.04,3.25,1.31,6.71-0.27,9.77
		c-1.82,3.53-4.79,4.96-8.15,6.03l-10.11,3.23c-2.93,0.94-7.57,2.06-10.92,0.57l0.17,0.54c0.26,0.82-1.7,1.45-1.96,0.63l-1.52-4.75
		c-0.17-0.54-0.13-0.9,0.03-1.15c0.45-0.58,1.61-0.51,1.93,0.49c1.03,2.86,5.87,2.34,8.65,1.81c1.26-0.25,2.65-0.69,6.58-1.94
		c1.82-0.58,4.2-1.38,7.42-2.41c3.5-1.12,6.22-3.56,6.83-7.1c0.23-1.88-0.27-3.69-0.82-5.41c-0.58-1.82-1.36-3.5-2.99-4.79
		c-2.65-2.26-5.98-2.1-9.38-1.02l-10.83,3.46c-0.82,0.26-1.64,0.52-2.43,0.9c-2.29,1.08-6.02,2.98-6.34,5.41
		c-0.09,0.46,0.05,1.01,0.3,1.79c0.15,0.46,0.3,0.93,0.49,1.54c0.25,0.67,0.48,1.38,0.86,2.56c4.05-1.37,8.31-3.32,11.71-5.75
		c1.15-0.84,2.55-1.99,3.23-2.96c0.49-0.67,2.12,1.09,1.78,1.87c-0.93,1.28-2.51,2.61-3.64,3.41c-3.93,2.87-8.45,4.86-12.97,6.34
		C-1793.74,975.67-1794.04,974.62-1795.39,970.37z"/>
	<path class="st4" d="M-1849.03,965.33l4.95-0.17c0.9-0.03,1,2.74,0.1,2.77l-1.39,0.05c0.38,3.44,1.67,6.81,4.01,9.54l0-0.04
		c3.95,4.55,10.15,6.81,16.08,7.92c2.87,0.57,5.96,0.95,8.74,0.93l-0.68-19.34l-1.46,0.05c-0.86,0.03-0.96-2.74-0.1-2.77l4.99-0.17
		c0.9-0.03,0.96,2.74,0.1,2.77l-1.42,0.05l0.68,19.34l1.43-0.05c0.9-0.03,0.96,2.78,0.1,2.81l-3.11,0.07
		c-5.66,0.12-15.04-1.87-20.35-4.61c-3.68-2.08-6.82-5.16-8.79-8.81l0.41,11.66l1.46-0.05c0.9-0.03,1,2.78,0.1,2.81l-4.95,0.17
		c-0.9,0.03-1-2.78-0.1-2.81l1.46-0.05l-0.68-19.34l-1.46,0.05C-1849.83,968.13-1849.93,965.36-1849.03,965.33z"/>
	<path class="st4" d="M-1901.6,973.71l-0.86,3.5l28.67,7.01l2.5-10.2c-1.24,0.35-2.43,0.48-3.5,0.57
		c-4.93,0.42-9.84-0.32-14.51-1.46c-0.85-0.17-0.19-2.86,0.66-2.7c4.55,1.12,9.28,1.85,13.89,1.47c1.46-0.14,2.93-0.29,4.18-0.83
		l1.34-5.5l-28.63-7l-0.84,3.42c-0.21,0.84-2.21,0.35-2-0.49l1.17-4.77c0.12-0.47,0.3-0.74,0.57-0.9c0.27-0.17,0.53-0.26,0.75-0.2
		l33.07,8.09c0.8,0.2,0.14,2.89-0.66,2.7l-1.42-0.35l-4.56,18.65l1.42,0.35c0.8,0.2,0.15,2.86-0.65,2.66l-33.11-8.1
		c-0.22-0.05-0.4-0.25-0.59-0.57c-0.14-0.23-0.17-0.58-0.06-1.02l1.18-4.81C-1903.41,972.42-1901.41,972.91-1901.6,973.71z"/>
	<path class="st4" d="M-1943.61,932.72l4.37,2.48c0.78,0.44-0.51,2.73-1.3,2.45c0.32,1.95,0.6,3.96,0.87,5.92l0.46,2.84l17.32,9.83
		l3.44-6.07l-1.24-0.7c-0.78-0.44,0.59-2.86,1.37-2.41l4.34,2.46c0.75,0.43-0.62,2.84-1.37,2.41l-1.27-0.72l-9.62,16.96l1.27,0.72
		c0.75,0.43-0.64,2.87-1.39,2.45l-11.58-6.57c-1.5-0.85-3-1.7-4.55-2.54c-1.55-0.84-3.08-1.71-4.62-2.58
		c-1.14-0.65-2.25-1.28-3.34-1.94c-3.02-1.89-4.58-5.92-3.04-9.53c1.72-3.94,6.13-5.79,9.89-4.22c0.59,0.25,1.24,0.62,1.83,0.95
		l-0.56-3.81l-0.75-4.91l-1.89-1.07C-1945.73,934.7-1944.36,932.29-1943.61,932.72z M-1934.4,952.34c-1.08-0.61-2.15-1.22-3.21-1.86
		c-1.06-0.64-2.15-1.31-3.22-1.92c-1.27-0.72-2.5-1.37-3.79-1.98c-2.64-1.28-5.52-0.16-6.7,1.93c-0.56,0.98-0.76,2.24-0.34,3.64
		c0.57,1.96,2.33,2.96,4.12,3.98c6.59,3.74,12.88,7.31,19.46,11l4.81-8.48L-1934.4,952.34z"/>
</g>
<g>
	<path class="st2" d="M-2553.47,1113.59c0,38.53,24.55,71.34,58.86,83.62c9.35,3.35,19.42,5.17,29.92,5.17h89.12V1024.8h-89.12
		c-10.5,0-20.58,1.82-29.92,5.17C-2528.92,1042.25-2553.47,1075.05-2553.47,1113.59z"/>
	<path class="st2" d="M-2286.87,1182.16c0,34.62-25.54,63.28-58.82,68.13c-0.07,0.01-0.13,0.02-0.19,0.03v40.55h-118.38v-177.58
		h108.52c3.35,0,6.64,0.24,9.86,0.71c0.07,0.01,0.13,0.02,0.19,0.03C-2312.42,1118.88-2286.87,1147.54-2286.87,1182.16z"/>
</g>
<path id="SVGID_x5F_4_x5F_" style="fill:none;" d="M-2420.17,1380.83c-123.16,0-223-99.84-223-223s99.84-223,223-223
	c123.16,0,223,99.84,223,223S-2297.01,1380.83-2420.17,1380.83z"/>
<text><textPath  xlink:href="#SVGID_x5F_4_x5F_" startOffset="166.6667%">
<tspan  class="st4" style="font-family:'EuphoriaExpand-Bold'; font-size:45.2027px; letter-spacing:261;">GRAPHIC AND WEB DESIGNER</tspan></textPath>
</text>
</svg>
